# xmcd
#
# Track frame offsets: 
#        187
#        6050
#        25362
#        42075
#        61150
#        88850
#        122752
#        144215
#        159387
#        185142
#        222570
#
# Disc length: 3199 seconds
#
# Revision: 0
# Processed by: cddbd v1.5.2PL0 Copyright (c) Steve Scherf et al.
# Submitted via: ExactAudioCopyFreeDBPlugin 1.0
#
DISCID=940c7d0b
DTITLE=Gary Moore - 1989 - After The War
DYEAR=1989
DGENRE=
TTITLE0=Dunluce [Part 1]
TTITLE1=After The War
TTITLE2=Speak For Yourself
TTITLE3=Livin' On Dreams
TTITLE4=Led Clones
TTITLE5=The Messiah Will Come Again
TTITLE6=Running From The Storm
TTITLE7=This Thing Called Love
TTITLE8=Ready For Love
TTITLE9=Blood Of Emeralds
TTITLE10=Dunluce [Part 2]
EXTD=
EXTT0=
EXTT1=
EXTT2=
EXTT3=
EXTT4=
EXTT5=
EXTT6=
EXTT7=
EXTT8=
EXTT9=
EXTT10=
PLAYORDER=
